<?xml version="1.0" encoding="UTF-8" standalone="no"?>
<!-- Created with Inkscape (http://www.inkscape.org/) -->

<svg
   width="79.480415mm"
   height="23.893246mm"
   viewBox="0 0 79.480415 23.893246"
   version="1.1"
   id="svg1"
   xml:space="preserve"
   xmlns="http://www.w3.org/2000/svg"
   xmlns:svg="http://www.w3.org/2000/svg"><defs
     id="defs1" /><g
     id="layer1"
     transform="translate(-83.271402,-137.72169)"><path
       id="rect1"
       style="fill:#fbdf04;fill-opacity:1;stroke-width:0.264583"
       d="m 83.271403,156.56047 v 5.05447 h 79.480417 v -5.05447 z" /><text
       xml:space="preserve"
       style="font-size:21.0602px;fill:#fc4e33;fill-opacity:1;stroke-width:1.75502"
       x="82.464638"
       y="151.98463"
       id="text1"><tspan
         id="tspan1"
         style="font-style:normal;font-variant:normal;font-weight:bold;font-stretch:normal;font-family:'Times New Roman';-inkscape-font-specification:'Times New Roman,  Bold';fill:#fc4e33;fill-opacity:1;stroke-width:1.75502"
         x="82.464638"
         y="151.98463">STUDIO</tspan></text><path
       id="path9"
       style="font-weight:bold;font-size:3.97402px;font-family:Arial;-inkscape-font-specification:'Arial Bold';letter-spacing:2.64583px;word-spacing:3.175px;stroke-width:0.331168"
       d="m 129.76262,157.6157 c -0.23156,0 -0.43565,0.0376 -0.61288,0.11266 -0.13325,0.0556 -0.25643,0.14066 -0.36897,0.2558 -0.11127,0.11512 -0.19888,0.24527 -0.26355,0.39015 -0.0867,0.19664 -0.13022,0.4399 -0.13022,0.72967 0,0.45277 0.12498,0.8084 0.37465,1.06712 0.24967,0.25743 0.58571,0.38654 1.00872,0.38654 0.41784,0 0.75182,-0.12936 1.00149,-0.38809 0.24967,-0.26002 0.37466,-0.61977 0.37466,-1.079 0,-0.46312 -0.12654,-0.82467 -0.37879,-1.08469 -0.25097,-0.26002 -0.58598,-0.39016 -1.00511,-0.39016 z m 26.45368,0 c -0.21862,0 -0.40545,0.0332 -0.56068,0.0992 -0.15394,0.066 -0.27223,0.1621 -0.35502,0.28887 -0.0815,0.12548 -0.12248,0.26078 -0.12248,0.40566 0,0.2251 0.0874,0.41605 0.262,0.57258 0.12419,0.11125 0.34014,0.2048 0.64803,0.28112 0.23932,0.0595 0.39265,0.10075 0.45992,0.12402 0.0983,0.0349 0.16687,0.0767 0.20567,0.12454 0.0401,0.0466 0.0605,0.10327 0.0605,0.17053 0,0.10479 -0.0472,0.19653 -0.14159,0.27544 -0.0931,0.0776 -0.23256,0.11679 -0.41755,0.11679 -0.17464,0 -0.31353,-0.0443 -0.41703,-0.13229 -0.10216,-0.088 -0.16994,-0.22533 -0.2036,-0.4129 l -0.55914,0.0543 c 0.0375,0.31823 0.15296,0.56073 0.34571,0.72761 0.19275,0.16558 0.46875,0.24804 0.82838,0.24804 0.24708,0 0.45349,-0.0343 0.61908,-0.10283 0.16558,-0.0699 0.2934,-0.17603 0.38396,-0.31833 0.0906,-0.1423 0.13591,-0.29486 0.13591,-0.45785 0,-0.17982 -0.0379,-0.33057 -0.11421,-0.45217 -0.075,-0.1229 -0.18018,-0.21901 -0.31471,-0.28887 -0.13324,-0.0711 -0.33966,-0.13968 -0.61908,-0.20568 -0.27943,-0.066 -0.45518,-0.12937 -0.52762,-0.19017 -0.0569,-0.0479 -0.0853,-0.10532 -0.0853,-0.1726 0,-0.0737 0.0301,-0.13273 0.0909,-0.17673 0.0944,-0.0686 0.22534,-0.10283 0.39222,-0.10283 0.1617,0 0.28256,0.0325 0.36277,0.0971 0.0815,0.0634 0.13456,0.16801 0.15916,0.31419 l 0.57413,-0.0253 c -0.009,-0.26131 -0.10415,-0.4703 -0.28526,-0.62684 -0.17981,-0.15652 -0.44808,-0.23461 -0.80512,-0.23461 z m -67.5814,0.0486 v 2.84479 h 1.081071 c 0.212154,0 0.381721,-0.0203 0.508496,-0.0605 0.169464,-0.0543 0.303984,-0.12984 0.403593,-0.22686 0.13195,-0.12806 0.233225,-0.29583 0.304374,-0.50281 0.05821,-0.16946 0.08733,-0.37098 0.08733,-0.60513 0,-0.26648 -0.03092,-0.49017 -0.09302,-0.67127 -0.06209,-0.1824 -0.152804,-0.33651 -0.271818,-0.46199 -0.119014,-0.1255 -0.262037,-0.21287 -0.428915,-0.262 -0.124188,-0.0362 -0.304319,-0.0543 -0.541052,-0.0543 z m 5.518009,0 v 2.84479 h 2.163176 v -0.47956 h -1.58905 v -0.77411 h 1.428336 v -0.47956 h -1.428336 v -0.63045 h 1.53479 v -0.48111 z m 12.025111,0 v 2.84479 h 0.57412 v -2.84479 z m 7.04918,0 v 2.84479 h 1.08055 c 0.21215,0 0.38172,-0.0203 0.5085,-0.0605 0.16946,-0.0543 0.30398,-0.12984 0.40359,-0.22686 0.13195,-0.12806 0.23323,-0.29583 0.30437,-0.50281 0.0582,-0.16946 0.0873,-0.37098 0.0873,-0.60513 0,-0.26648 -0.0309,-0.49017 -0.093,-0.67127 -0.0621,-0.1824 -0.15229,-0.33651 -0.2713,-0.46199 -0.11901,-0.1255 -0.26204,-0.21287 -0.42892,-0.262 -0.12418,-0.0362 -0.30483,-0.0543 -0.54156,-0.0543 z m 8.4708,0 v 2.84479 h 0.57464 v -2.84479 z m 15.75666,0 v 2.84479 h 0.53382 v -2.23966 l 0.56275,2.23966 h 0.55294 l 0.56482,-2.23966 v 2.23966 h 0.5333 v -2.84479 h -0.86144 l -0.51005,1.94045 -0.51625,-1.94045 z m 9.94203,0 -1.10794,2.84479 h 0.60926 l 0.23461,-0.64648 h 1.1374 l 0.24805,0.64648 h 0.62476 l -1.13894,-2.84479 z m -17.62787,0.44235 c 0.23674,0 0.42614,0.0804 0.56844,0.24081 0.1436,0.16041 0.21549,0.40368 0.21549,0.72967 0,0.32987 -0.0742,0.57752 -0.22169,0.74311 -0.14618,0.16429 -0.33326,0.2465 -0.56224,0.2465 -0.22897,0 -0.41812,-0.083 -0.56689,-0.24857 -0.14876,-0.16688 -0.22324,-0.41117 -0.22324,-0.73329 0,-0.32728 0.0727,-0.5721 0.21756,-0.7338 0.14488,-0.163 0.33584,-0.24443 0.57257,-0.24443 z m -40.559278,0.0388 h 0.257865 c 0.234146,0 0.391601,0.009 0.471806,0.0274 0.107371,0.0233 0.195761,0.0678 0.265617,0.13385 0.06986,0.066 0.123974,0.15771 0.162781,0.27543 0.03881,0.11772 0.05839,0.28651 0.05839,0.50643 0,0.21991 -0.01959,0.39387 -0.05839,0.52193 -0.03881,0.12681 -0.08932,0.21829 -0.151412,0.27389 -0.0608,0.0556 -0.137336,0.0951 -0.230477,0.11834 -0.07115,0.0181 -0.186856,0.0269 -0.347266,0.0269 h -0.428914 z m 24.591778,0 h 0.25838 c 0.23415,0 0.39109,0.009 0.47129,0.0274 0.10737,0.0233 0.19576,0.0678 0.26562,0.13385 0.0699,0.066 0.1245,0.15771 0.1633,0.27543 0.0388,0.11772 0.0579,0.28651 0.0579,0.50643 0,0.21991 -0.0191,0.39387 -0.0579,0.52193 -0.0388,0.12681 -0.0893,0.21829 -0.15141,0.27389 -0.0608,0.0556 -0.13786,0.0951 -0.231,0.11834 -0.0712,0.0181 -0.18686,0.0269 -0.34726,0.0269 h -0.42892 z m 33.89199,0.18241 0.39222,1.05575 h -0.77618 z" /></g></svg>
